# xmcd
#
# Track frame offsets: 
#        197
#        17032
#        31707
#        46530
#        61732
#        78792
#        89420
#        105125
#        121620
#        136512
#        151500
#
# Disc length: 2178 seconds
#
# Revision: 0
# Processed by: cddbd v1.5.1PL2 Copyright (c) Steve Scherf et al.
# Submitted via: ExactAudioCopy v0.95b2
#
DISCID=5c08800b
DTITLE=Vic Duncan - I'll get it done
DYEAR=1988
DGENRE=Country
TTITLE0=Pay Your Dues
TTITLE1=Hold On
TTITLE2=Through and Through
TTITLE3=Looking for the Light
TTITLE4=Day Dreamin'
TTITLE5=I'll Get it Done
TTITLE6=Texas Morning
TTITLE7=If I Were a Fool
TTITLE8=Don't Want to Leave You
TTITLE9=I'll Tell You Why
TTITLE10=Your Place or Mine
EXTD=
EXTT0=
EXTT1=
EXTT2=
EXTT3=
EXTT4=
EXTT5=
EXTT6=
EXTT7=
EXTT8=
EXTT9=
EXTT10=
PLAYORDER=
